PathFileType	4	(X/Y/Z)	C:\Users\Basilio\Documents\Thesis Gigler\squatting_fais\c3dfiles\075\SLS_back_pre5\markers_experimental.trc
DataRate	CameraRate	NumFrames	NumMarkers	Units	OrigDataRate	OrigDataStartFrame	OrigNumFrames
200.000000	200.000000	4	61	mm	200.000000	1129	1291
Frame#	Time	FHD			LBHD			C7			T10			CLAV			LSHO			LUUPA			LMUPA			LDUPA			LLEP			LMEP			LRAD			LUL			LRFIN			RSHO			RUPA1			RMUPA			RDUPA			RLEP			RMEP			RRAD			RUL			RUFIN			LASI			RASI			USACR			LSACR			RSACR			LTHI1			LTHI2			LTHI3			LTHI4			LLFC			LMFC			LTIB1			LTIB2			LTIB3			LTIB4			LLMAL			LMMAL			LHEE			LMT1			LMT2			LMT5			RTHI			RTHI2			RTHI3			RTHI4			RLFC			RMFC			RTIB1			RTIB2			RTIB3			RTIB4			RLMAL			RMMAL			RHEE			RMT1			RMT2			RMT5			RBHD			
		X1	Y1	Z1	X2	Y2	Z2	X3	Y3	Z3	X4	Y4	Z4	X5	Y5	Z5	X6	Y6	Z6	X7	Y7	Z7	X8	Y8	Z8	X9	Y9	Z9	X10	Y10	Z10	X11	Y11	Z11	X12	Y12	Z12	X13	Y13	Z13	X14	Y14	Z14	X15	Y15	Z15	X16	Y16	Z16	X17	Y17	Z17	X18	Y18	Z18	X19	Y19	Z19	X20	Y20	Z20	X21	Y21	Z21	X22	Y22	Z22	X23	Y23	Z23	X24	Y24	Z24	X25	Y25	Z25	X26	Y26	Z26	X27	Y27	Z27	X28	Y28	Z28	X29	Y29	Z29	X30	Y30	Z30	X31	Y31	Z31	X32	Y32	Z32	X33	Y33	Z33	X34	Y34	Z34	X35	Y35	Z35	X36	Y36	Z36	X37	Y37	Z37	X38	Y38	Z38	X39	Y39	Z39	X40	Y40	Z40	X41	Y41	Z41	X42	Y42	Z42	X43	Y43	Z43	X44	Y44	Z44	X45	Y45	Z45	X46	Y46	Z46	X47	Y47	Z47	X48	Y48	Z48	X49	Y49	Z49	X50	Y50	Z50	X51	Y51	Z51	X52	Y52	Z52	X53	Y53	Z53	X54	Y54	Z54	X55	Y55	Z55	X56	Y56	Z56	X57	Y57	Z57	X58	Y58	Z58	X59	Y59	Z59	X60	Y60	Z60	X61	Y61	Z61	

1130	5.645	-164.5674285888672	1709.89404296875	-945.4464111328127	-305.1521911621094	1585.93212890625	-1014.352294921875	-344.8547668457032	1471.898559570313	-956.575866699219	-346.8347778320313	1145.112915039063	-950.1179809570315	-199.4227447509766	1414.502075195313	-945.289245605469	-226.8725891113282	1438.873168945313	-1110.364135742188	-238.1975555419922	1242.864013671875	-1233.117065429688	-197.8584594726563	1219.526977539063	-1213.921630859375	-221.2917022705079	1176.742065429688	-1251.084228515625	-193.3670654296876	1096.371459960938	-1248.552490234375	-265.8713073730469	1077.253173828125	-1191.8349609375	-96.29395294189456	1076.123779296875	-1014.009338378906	-50.15982818603517	1034.335083007813	-1055.398559570313	-31.0061435699463	1082.972778320313	-959.0213012695315	-249.7096557617188	1437.015747070313	-784.5876464843752	-271.0908203125001	1238.530639648438	-667.6146240234376	-231.3281860351563	1212.163940429688	-681.0686645507814	-262.6762390136719	1169.936889648438	-650.3228759765626	-241.8193511962891	1100.509887695313	-646.4470825195314	-297.8527526855469	1064.071655273438	-701.2796630859376	-87.84880828857423	1088.086059570313	-872.7860107421877	-69.31213378906251	1033.704467773438	-821.277526855469	-9.860952377319338	1080.907348632813	-908.171813964844	-172.6468963623047	976.0950927734377	-1067.955200195313	-172.5597686767578	994.2592773437502	-813.127868652344	-331.2974548339844	1049.466796875	-947.9805297851565	-335.7379150390626	1016.703552246094	-973.8052978515627	-335.8704833984376	1019.999694824219	-916.774353027344	-233.2683258056641	732.7968750000001	-1129.091918945313	-209.5795440673829	651.5139770507814	-1125.446655273438	-163.136459350586	653.9754028320314	-1108.261108398438	-241.1862182617188	601.8035278320314	-1113.648193359375	-259.9863281250001	493.041717529297	-1101.984130859375	-217.644271850586	475.7820739746095	-978.5325317382815	-208.6127624511719	370.5605773925782	-1073.271240234375	-269.9766235351563	332.2050170898438	-1120.304321289063	-227.9993286132813	324.9776916503907	-1102.443481445313	-231.2523040771485	244.1000366210938	-1075.054321289063	-308.9235534667969	103.6056518554688	-1092.627197265625	-276.8408508300782	115.1535110473633	-1012.707641601563	-360.5032653808594	65.53137207031251	-1050.687744140625	-151.4429473876953	52.0219192504883	-1024.58447265625	-148.0425415039063	55.49163818359376	-1073.194091796875	-185.9247741699219	40.44256210327149	-1127.025756835938	-248.1428680419922	796.0620727539065	-739.1432495117189	-215.2558135986329	739.6774291992189	-739.5562744140626	-184.4359130859375	742.5301513671876	-751.9412841796876	-251.0874938964844	661.1090087890626	-743.8079833984376	-283.1793212890626	509.3060607910157	-764.6827392578126	-247.5298004150391	488.4519348144532	-886.7777099609377	-258.0938110351563	351.0226135253907	-819.363220214844	-320.0921325683594	287.8631591796876	-755.4562988281251	-285.2478942871094	274.6102600097657	-786.902038574219	-303.0219726562501	229.6062622070313	-820.0648193359377	-388.8309936523439	121.7147674560547	-774.9304199218752	-361.2908325195313	140.2589263916016	-856.9676513671877	-448.7684020996095	101.3392333984375	-826.8499145507815	-245.9470672607422	56.117000579834	-837.5784912109377	-245.6502990722657	55.1105422973633	-795.2156372070315	-283.1306762695313	36.55096817016602	-742.2177734375001	-272.5535583496094	1628.517578125	-860.5816040039065	
1131	5.65	-164.7272033691407	1709.846069335938	-945.2893066406252	-305.1472778320313	1585.763305664063	-1014.36328125	-344.8551025390626	1471.827270507813	-956.515808105469	-346.8383178710938	1145.046630859375	-949.9925537109377	-199.5978240966797	1414.487182617188	-945.2972412109377	-226.9284210205079	1438.773681640625	-1110.338989257813	-238.3808898925782	1242.64306640625	-1233.001342773438	-198.2106170654297	1219.322021484375	-1213.80419921875	-221.7436828613282	1176.53466796875	-1250.902221679688	-193.6485748291016	1096.08349609375	-1248.300415039063	-266.4240112304688	1077.161743164063	-1191.683227539063	-96.97265625000003	1075.543212890625	-1013.830078125	-50.92110061645509	1033.86181640625	-1055.12841796875	-31.71088409423829	1082.32861328125	-958.6511840820315	-249.7411193847657	1437.04443359375	-784.5036621093752	-271.4376220703126	1238.692749023438	-667.3818359375001	-231.6830596923829	1212.23046875	-680.8108520507814	-263.2148742675782	1170.091186523438	-649.9482421875001	-242.4470825195313	1100.633911132813	-646.0717773437501	-298.5122985839844	1064.083740234375	-700.9387817382814	-88.9477996826172	1087.368774414063	-872.5887451171877	-70.08267211914064	1033.276123046875	-820.8563232421877	-10.85245418548584	1080.248657226563	-907.9276123046877	-171.9464263916016	975.9844970703127	-1067.567993164063	-172.5501251220703	994.2391357421877	-812.9635009765627	-331.2258300781251	1049.300048828125	-947.8225708007815	-335.7130737304688	1016.560424804688	-973.679138183594	-335.9294433593751	1019.886962890625	-916.5917968750002	-232.4640655517579	732.6746215820314	-1128.935913085938	-209.242172241211	651.5568847656251	-1125.462158203125	-162.8267517089844	654.0853271484376	-1108.282470703125	-240.8231964111329	601.7529296875001	-1113.710083007813	-259.4580078125001	493.0007324218751	-1101.986206054688	-217.1765747070313	475.6924438476564	-978.5697021484377	-207.7815399169922	370.3299560546876	-1072.9560546875	-269.6205749511719	332.2169189453126	-1120.368041992188	-228.1287689208985	325.0107421875001	-1102.725830078125	-230.9303894042969	244.0094909667969	-1075.015625	-308.8838806152344	103.6556777954102	-1092.633056640625	-276.8326110839844	115.166259765625	-1012.708618164063	-360.3713073730469	65.5664749145508	-1050.683471679688	-151.4212341308594	52.01338577270509	-1024.529907226563	-148.0763702392578	55.5154151916504	-1073.167114257813	-185.9502258300782	40.42694854736329	-1127.026977539063	-248.0442657470704	796.0496826171877	-739.0144653320314	-215.1728820800782	739.6344604492189	-739.4067382812501	-184.3516845703125	742.4979248046876	-751.8836059570314	-250.9836883544922	661.0750122070314	-743.7072753906251	-283.0188293457032	509.2205505371095	-764.6126098632814	-247.3079681396485	488.4483947753907	-886.7403564453127	-257.9424743652344	350.9603271484376	-819.3145751953127	-319.9752197265626	287.8171386718751	-755.4044189453126	-285.1614379882813	274.4897766113282	-786.767028808594	-302.9718627929688	229.5553131103516	-819.977966308594	-388.8264465332032	121.6952285766602	-774.9295654296877	-361.2807006835938	140.2683868408203	-857.0242919921877	-448.7709960937501	101.3672637939453	-826.8784179687502	-245.9618530273438	56.09005355834962	-837.5908813476565	-245.6638793945313	55.13568115234376	-795.2196044921877	-283.1080322265626	36.5664176940918	-742.1912231445314	-272.7275085449219	1628.513549804688	-860.5529785156252	
1132	5.655	-164.8560638427735	1709.797607421875	-945.112487792969	-304.9903564453126	1585.78857421875	-1014.383850097656	-344.9091796875001	1471.80078125	-956.4248046875002	-346.8777770996094	1145.001342773438	-949.8938598632815	-199.6652984619141	1414.4375	-945.2334594726565	-226.8725280761719	1438.64697265625	-1110.242553710938	-238.5352630615235	1242.433959960938	-1232.817138671875	-198.4311065673829	1219.126586914063	-1213.672607421875	-222.1295166015626	1176.404663085938	-1250.721069335938	-194.0393676757813	1095.835693359375	-1248.157592773438	-267.0531311035157	1076.982177734375	-1191.624633789063	-97.69975280761722	1075.047729492188	-1013.703308105469	-51.6373977661133	1033.296508789063	-1054.766967773438	-32.38584899902344	1081.791748046875	-958.3826293945315	-249.7938842773438	1437.014526367188	-784.4602661132815	-271.7159118652344	1238.834594726563	-667.2058715820314	-232.0860748291016	1212.327392578125	-680.5410766601564	-263.6724548339844	1170.232055664063	-649.6732177734376	-243.0642242431641	1100.720092773438	-645.7617187500001	-299.3704528808594	1064.484130859375	-700.3388061523439	-89.63648223876955	1086.999145507813	-872.1508789062502	-70.8384246826172	1032.860107421875	-820.4356079101565	-11.25397682189942	1079.552124023438	-907.4707641601565	-172.599105834961	976.1517333984377	-1067.738647460938	-172.5657501220703	994.195739746094	-812.8190917968752	-331.0919799804688	1049.099243164063	-947.7333984375002	-335.7209167480469	1016.478271484375	-973.5026855468752	-335.9600219726563	1019.818115234375	-916.4966430664065	-232.2699279785157	732.6989746093751	-1128.847290039063	-208.9668426513672	651.6165161132814	-1125.48583984375	-162.4377136230469	654.1419677734376	-1108.304443359375	-240.4516601562501	601.7554931640626	-1113.645629882813	-259.1453552246094	492.9923095703126	-1102.033447265625	-216.666244506836	475.6420288085939	-978.611267089844	-207.4090728759766	370.1852722167969	-1072.92236328125	-269.3191223144532	332.1994934082032	-1120.360107421875	-227.7022552490235	324.9020385742188	-1102.75927734375	-230.693832397461	243.9631500244141	-1075.064331054688	-308.7108154296876	103.674430847168	-1092.632934570313	-276.7905273437501	115.1986618041992	-1012.692932128906	-360.4091796875001	65.59832763671876	-1050.706176757813	-151.382308959961	52.00732040405275	-1024.541625976563	-148.0069427490235	55.47319412231447	-1073.170166015625	-185.9215393066407	40.38399887084962	-1127.002807617188	-247.9677886962891	795.9788818359377	-738.9390258789064	-215.1156158447266	739.5925292968751	-739.3554687500001	-184.2380065917969	742.4307250976564	-751.8028564453126	-250.8960723876954	661.0330200195314	-743.6612548828126	-282.8579101562501	509.2101440429689	-764.4694824218751	-247.2047882080079	488.3830871582032	-886.609558105469	-257.8890380859376	350.8695373535157	-819.259460449219	-319.8609619140626	287.7879638671876	-755.3189086914064	-285.1075744628907	274.4312438964844	-786.7371215820315	-302.8932189941407	229.4768218994141	-819.9290161132815	-388.8364257812501	121.6966171264649	-774.9063110351565	-361.3538513183594	140.2935791015625	-856.9632568359377	-448.8026428222657	101.3633117675782	-826.8889770507815	-245.9341735839844	56.08326339721681	-837.5637207031252	-245.6107788085938	55.10648345947267	-795.218200683594	-283.1379699707032	36.52644348144532	-742.2143554687501	-272.9039306640626	1628.4580078125	-860.594909667969	
1133	5.66	-165.0298919677735	1709.869750976563	-944.9678955078127	-305.0063781738282	1585.71435546875	-1014.415161132813	-344.8941955566407	1471.787353515625	-956.3850708007815	-346.8265380859376	1145.000610351563	-949.703308105469	-199.5890808105469	1414.3662109375	-945.0831298828127	-226.8839721679688	1438.53076171875	-1110.192993164063	-238.6262664794922	1242.25341796875	-1232.678466796875	-198.682601928711	1218.888061523438	-1213.5673828125	-222.3817596435547	1176.219482421875	-1250.513427734375	-194.5016632080079	1095.608642578125	-1247.979858398438	-267.6333923339844	1076.833740234375	-1191.41015625	-98.41172027587893	1074.628784179688	-1013.470703125	-52.13884353637697	1032.78125	-1054.425415039063	-33.11965560913087	1081.267944335938	-958.0217285156252	-249.8084411621094	1437.061889648438	-784.3488769531252	-271.9923400878907	1238.990478515625	-666.9833984375001	-232.4916381835938	1212.3916015625	-680.2425537109376	-264.1252746582032	1170.37646484375	-649.4102783203126	-243.6262512207032	1100.886352539063	-645.3616333007814	-300.0330810546876	1064.647583007813	-699.9851684570314	-89.70098876953126	1086.974975585938	-871.5708618164065	-71.51451873779298	1032.491455078125	-820.0712890625002	-11.87949085235596	1078.955322265625	-907.0601196289065	-172.5391693115235	976.0852050781252	-1067.614868164063	-172.5562133789063	994.2022094726565	-812.7232666015627	-331.2321472167969	1048.99560546875	-947.5734863281252	-335.7430114746094	1016.367126464844	-973.3743286132815	-335.9937133789063	1019.727478027344	-916.341979980469	-232.1295166015626	732.5843505859376	-1128.6572265625	-208.1124572753907	651.3811645507814	-1125.266235351563	-162.1059265136719	654.1974487304689	-1108.27783203125	-240.0535736083985	601.6995239257814	-1113.630249023438	-258.5750732421876	492.9487609863282	-1102.041625976563	-216.0257415771485	475.6696166992189	-978.6739501953127	-207.1077270507813	370.0940551757813	-1072.8251953125	-268.9306640625001	332.1647644042969	-1120.338500976563	-227.1229095458985	324.8242187500001	-1102.761108398438	-230.2938995361329	243.8470306396485	-1074.932495117188	-308.7008972167969	103.7107238769532	-1092.610473632813	-276.7901916503907	115.1939468383789	-1012.662292480469	-360.4184570312501	65.60630035400392	-1050.685546875	-151.4237823486328	52.02256774902345	-1024.553344726563	-148.0070495605469	55.51881027221681	-1073.170043945313	-185.8759460449219	40.42655563354493	-1127.029541015625	-247.9467163085938	795.9346923828127	-738.8341674804689	-215.0736694335938	739.4561157226564	-739.2879638671876	-184.174560546875	742.4250488281251	-751.6943969726564	-250.7725372314454	660.9767456054689	-743.5930786132814	-282.7196655273438	509.1655273437501	-764.4292602539064	-247.0512847900391	488.3656311035157	-886.6123657226565	-257.7527770996094	350.8379211425782	-819.153747558594	-319.8198852539063	287.6826782226563	-755.2862548828126	-285.0419921875001	274.3439025878907	-786.6776123046877	-302.6986389160157	229.4427795410157	-819.8469238281252	-388.8307495117189	121.6924209594727	-774.8872680664065	-361.2965698242188	140.3318176269532	-856.9365844726565	-448.7890930175782	101.3697052001953	-826.853210449219	-246.0274810791016	56.07064819335939	-837.6289672851565	-245.6157989501954	55.08067703247072	-795.1999511718752	-283.1393737792969	36.52387237548829	-742.1942138671876	-272.9974670410157	1628.420776367188	-860.7703857421877	
